<svg height="512" viewBox="0 0 401.75 401.75" width="512" xmlns="http://www.w3.org/2000/svg"><g id="Layer_2" data-name="Layer 2"><g id="Layer_1-2" data-name="Layer 1"><g id="search" fill="#231f20"><path d="m200.87 20a180.88 180.88 0 1 1 -180.87 180.87 180.87 180.87 0 0 1 180.87-180.87m0-20a200.92 200.92 0 0 0 -78.19 386 200.92 200.92 0 0 0 156.39-370.21 199.66 199.66 0 0 0 -78.2-15.79z"/><rect height="97.15" rx="9.55" transform="matrix(.707 -.707 .707 .707 -111.09 268.65)" width="19.09" x="259.2" y="219.85"/><path d="m181.32 96.18a85.47 85.47 0 1 0 85.47 85.46 85.56 85.56 0 0 0 -85.47-85.46zm0 150.93a65.47 65.47 0 1 1 65.47-65.47 65.47 65.47 0 0 1 -65.47 65.47z"/></g></g></g></svg>